P2
# 8-bit pgm gray
43 6
255
255 255   0   0 255 255 255   0   0 255 255   0   0   0 255 255   0   0   0 255 255   0 255 255
  0 255   0   0   0   0 255   0 255 255   0 255   0 255 255 255 255 255   0
255   0 255 255   0 255   0 255 255   0 255   0 255 255   0 255   0 255 255   0 255   0 255   0
255 255 255 255 255   0 255   0 255 255   0 255   0 255 255 255 255 255 255
255   0 255 255 255 255   0 255 255   0 255   0 255 255   0 255   0 255 255   0 255   0   0 255
255 255 255 255   0 255 255   0 255 255   0 255   0 255 255 255 255 255 255
255   0 255   0   0 255   0   0   0   0 255   0   0   0 255 255   0   0   0 255 255   0 255   0
255 255 255   0 255 255 255   0 255 255   0 255   0 255 255 255 255 255 255
255   0 255 255   0 255   0 255 255   0 255   0 255   0 255 255   0 255 255 255 255   0 255   0
255 255   0 255 255 255 255   0 255 255   0 255   0 255 255 255 255 255 255
255 255   0   0   0 255   0 255 255   0 255   0 255 255   0 255   0 255 255 255 255   0 255 255
  0 255   0   0   0   0 255 255   0   0 255 255   0   0   0   0 255 255 255
